 <svg version="1.0" xmlns="http://www.w3.org/2000/svg" width="700.000000pt" height="468.000000pt" viewBox="0 0 700.000000 468.000000" preserveAspectRatio="xMidYMid meet">
<metadata>
Created by potrace 1.12, written by Peter Selinger 2001-2015
</metadata>
<g transform="translate(0.000000,468.000000) scale(0.100000,-0.100000)" fill="#000000" stroke="none">
<path d="M2184 3471 l6 -40 -57 -5 c-128 -14 -193 -29 -257 -61 l-66 -33 -17
29 c-53 90 -214 136 -363 105 -144 -31 -252 -110 -317 -231 -58 -110 -74 -216
-94 -607 -24 -496 33 -985 142 -1214 49 -104 92 -144 155 -144 40 0 51 5 94
46 34 32 62 73 94 137 45 92 107 275 121 355 4 23 10 42 14 42 3 0 14 -21 24
-47 16 -45 26 -54 138 -128 91 -60 125 -88 135 -112 17 -40 18 -178 1 -216 -9
-21 -61 -55 -232 -150 l-220 -123 -86 -145 c-78 -128 -97 -171 -69 -154 5 3
45 66 89 139 44 73 86 138 93 143 7 6 109 63 226 128 l212 118 16 56 c12 39
15 76 11 128 -4 55 -2 71 6 66 7 -3 38 -24 69 -45 l57 -38 226 0 226 0 57 38
c31 21 62 41 67 44 6 4 10 -31 10 -95 0 -72 5 -110 16 -130 11 -20 75 -61 234
-150 l219 -122 85 -142 c47 -79 89 -143 93 -143 20 0 2 39 -75 166 l-82 137
-220 123 c-172 97 -223 129 -232 151 -15 34 -17 182 -3 217 6 17 53 54 134
108 113 75 126 87 142 128 25 66 29 67 43 3 39 -177 129 -396 192 -468 122
-139 245 -55 324 220 64 221 90 470 90 855 0 449 -25 672 -91 801 -37 75 -135
173 -206 208 -159 80 -359 63 -467 -38 l-33 -31 -62 11 c-33 6 -90 21 -125 32
-39 12 -124 24 -215 32 -155 12 -192 22 -230 64 -32 35 -50 27 -42 -18z m264
-72 c87 -5 161 -15 202 -28 51 -15 167 -41 187 -41 2 0 3 -4 3 -10 0 -5 -7
-10 -15 -10 -19 0 -19 0 1 -39 13 -25 15 -53 12 -115 -5 -98 -16 -124 -32 -76
-14 43 -32 49 -40 13 -14 -57 -49 -133 -62 -133 -24 0 -109 -31 -123 -46 -22
-21 -7 -27 26 -11 38 19 83 29 83 19 0 -19 -101 -111 -197 -179 -111 -80 -163
-133 -195 -198 -12 -25 -24 -45 -27 -45 -12 1 -74 94 -98 146 -41 90 -41 144
3 283 12 41 -19 19 -35 -25 -8 -21 -22 -43 -30 -48 -38 -22 -98 -95 -109 -134
-12 -38 -15 -41 -33 -31 -26 13 -76 92 -89 139 -5 19 -10 52 -10 73 l0 39 53
-7 c28 -4 72 -16 96 -26 52 -23 51 -23 51 -5 0 17 -77 46 -144 55 -59 7 -60
12 -21 98 26 57 22 73 -9 45 -12 -11 -51 -31 -88 -47 -37 -15 -86 -43 -108
-62 -35 -30 -40 -32 -40 -15 0 11 10 51 21 88 69 225 191 316 439 330 124 7
125 8 104 39 l-17 25 52 -26 c45 -24 68 -28 189 -35z m-762 15 c36 -17 68 -42
81 -62 l22 -34 -39 -52 c-61 -81 -100 -183 -125 -328 -8 -49 10 -50 48 -3 33
41 47 44 47 11 0 -17 -11 -31 -34 -46 -79 -48 -145 -157 -154 -252 -7 -77 11
-75 26 3 14 75 42 132 90 182 77 81 76 83 68 -124 -7 -175 -9 -187 -36 -247
-40 -85 -46 -143 -25 -218 16 -57 15 -65 -5 -184 -77 -459 -214 -770 -338
-770 -54 0 -125 101 -170 240 -70 211 -97 461 -96 885 0 601 36 794 173 918
93 84 190 118 322 114 72 -3 96 -8 145 -33z m1524 25 c203 -32 348 -188 384
-414 35 -211 48 -718 26 -975 -41 -479 -141 -760 -270 -760 -36 0 -106 76
-153 168 -59 114 -110 277 -153 489 -38 190 -43 256 -25 323 15 56 7 114 -25
177 -22 43 -25 68 -34 227 -6 99 -8 181 -5 184 10 11 76 -64 100 -113 13 -27
27 -74 31 -102 9 -75 28 -68 21 8 -7 79 -48 159 -109 214 -42 38 -48 48 -48
84 0 23 -4 41 -10 41 -5 0 -10 -16 -10 -35 0 -19 -1 -35 -2 -35 -2 0 -27 9
-56 20 -29 11 -68 20 -87 20 -40 0 -40 1 -16 55 l19 40 7 -38 c10 -49 25 -43
48 19 18 47 26 145 17 226 -6 70 84 150 200 174 71 16 73 16 150 3z m-1345
-406 c-3 -10 -9 -30 -12 -45 -4 -21 -13 -28 -48 -37 -60 -15 -61 -15 -60 17 1
22 10 32 55 55 63 32 75 33 65 10z m1008 -119 c27 -9 50 -21 52 -28 2 -6 6
-88 9 -183 l5 -171 -60 31 c-81 42 -161 43 -242 4 -65 -32 -72 -40 -81 -89 -9
-48 9 -50 28 -4 8 18 24 41 37 50 53 37 98 -46 98 -184 0 -216 -107 -275 -150
-83 -16 68 -34 70 -26 3 8 -64 42 -125 78 -141 39 -16 74 8 102 69 17 38 22
67 22 147 0 105 -12 151 -49 193 -17 20 -18 24 -6 32 21 13 95 12 141 -2 22
-6 56 -26 77 -44 l38 -32 13 -142 c13 -139 13 -142 -8 -164 -34 -36 -26 -62
10 -30 20 18 18 24 45 -138 l16 -98 -27 -69 -28 -70 -159 -106 c-137 -91 -157
-102 -143 -76 15 31 20 114 9 170 -7 35 -24 42 -24 11 0 -32 -70 -60 -153 -60
-77 0 -130 18 -147 51 l-12 22 -17 -21 c-56 -73 -289 -68 -299 6 -4 28 -26 24
-30 -5 -10 -71 197 -107 302 -53 35 17 37 17 73 -1 21 -10 45 -19 54 -19 33 0
50 -13 69 -51 30 -57 69 -89 110 -89 l35 0 -37 -25 c-37 -25 -38 -25 -263 -25
l-225 0 -204 136 -205 136 -26 65 -26 65 22 129 c22 124 23 128 41 112 28 -25
34 -7 9 27 l-22 30 16 143 15 142 35 31 c39 35 93 54 153 54 69 0 75 -6 46
-50 -14 -22 -23 -44 -19 -49 11 -18 20 -13 32 18 15 40 44 54 72 35 38 -27 54
-81 55 -184 1 -82 -2 -102 -24 -145 -16 -32 -32 -51 -45 -53 -38 -5 -85 71
-85 139 0 35 -9 59 -22 59 -16 0 -3 -102 20 -153 42 -94 110 -97 154 -8 28 58
36 176 17 275 -12 65 -15 70 -57 97 -90 57 -195 58 -289 3 l-42 -24 4 77 c3
43 7 127 9 188 l3 109 29 13 c53 22 61 18 68 -39 4 -29 18 -76 32 -105 25 -52
93 -123 117 -123 7 0 21 24 30 53 11 34 30 66 55 91 l39 37 5 -78 c3 -54 12
-92 28 -123 26 -51 118 -180 129 -180 4 0 18 26 31 58 30 72 91 137 200 214
98 70 172 139 202 187 20 32 23 33 67 27 25 -3 68 -13 94 -22z m-1183 -562
c-4 -40 -11 -76 -14 -79 -10 -11 -7 104 4 133 16 41 19 26 10 -54z m1308 -27
c0 -43 -1 -46 -8 -20 -11 44 -11 116 0 90 5 -11 8 -42 8 -70z m-338 -640 c0
-78 -44 -130 -89 -105 -19 10 -71 77 -71 91 0 4 26 12 58 18 31 6 64 16 72 21
25 16 30 12 30 -25z"></path>
<path d="M2280 2025 l54 -55 53 52 c29 29 53 54 53 55 0 2 -48 3 -107 3 l-107
0 54 -55z"></path>
<path d="M1765 2020 c-4 -6 8 -17 29 -25 20 -8 52 -22 72 -30 41 -17 64 -19
64 -6 0 7 -34 23 -146 68 -7 2 -15 -1 -19 -7z"></path>
<path d="M2813 1998 c-68 -28 -92 -48 -60 -48 24 0 148 55 148 65 1 17 -14 14
-88 -17z"></path>
<path d="M1710 1905 c0 -12 16 -15 96 -15 72 0 95 3 92 13 -3 8 -34 13 -96 15
-77 2 -92 0 -92 -13z"></path>
<path d="M2717 1914 c-18 -18 15 -24 124 -24 99 0 119 3 119 15 0 12 -20 15
-118 15 -65 0 -122 -3 -125 -6z"></path>
<path d="M1835 1831 c-63 -26 -96 -52 -63 -50 24 0 153 57 151 65 -3 16 -18
13 -88 -15z"></path>
<path d="M2742 1849 c6 -19 149 -72 161 -60 7 7 2 13 -14 20 -13 5 -48 18 -77
30 -60 24 -75 26 -70 10z"></path>
<path d="M183 3 c97 -2 257 -2 355 0 97 1 17 2 -178 2 -195 0 -275 -1 -177 -2z"></path>
</g>
</svg>